<svg width="22" height="22" viewBox="0 0 22 22" fill="none" xmlns="http://www.w3.org/2000/svg">
<path d="M19.4219 0H2.57812C1.15646 0 0 1.15646 0 2.57812V19.4219C0 20.8435 1.15646 22 2.57812 22H19.4219C20.8435 22 22 20.8435 22 19.4219V2.57812C22 1.15646 20.8435 0 19.4219 0ZM20.2812 19.4219C20.2812 19.8957 19.8957 20.2812 19.4219 20.2812H14.3516V14.0078H17.1027L17.4233 11.3438H14.3516V8.46484C14.3516 7.73001 14.9058 7.17578 15.6406 7.17578H17.5742V4.68359C17.0653 4.61176 16.0836 4.51172 15.6406 4.51172C14.6384 4.51172 13.6339 4.93452 12.8846 5.67154C12.1127 6.43088 11.6875 7.42554 11.6875 8.4724V11.3438H8.89453V14.0078H11.6875V20.2812H2.57812C2.10429 20.2812 1.71875 19.8957 1.71875 19.4219V2.57812C1.71875 2.10429 2.10429 1.71875 2.57812 1.71875H19.4219C19.8957 1.71875 20.2812 2.10429 20.2812 2.57812V19.4219Z" fill="black"/>
</svg>
