<svg width="22" height="22" viewBox="0 0 22 22" fill="none" xmlns="http://www.w3.org/2000/svg">
<path d="M19.3898 4.94068L19.3789 4.89844C20.311 4.33963 21.0637 3.41842 21.3984 2.36328C20.5254 2.88264 19.5039 3.27667 18.4766 3.48047C17.6528 2.60279 16.5536 2.0625 15.2539 2.0625C12.7628 2.0625 10.6992 4.07932 10.6992 6.57422C10.6992 6.92923 10.7494 7.27676 10.8281 7.60547V7.64844C7.11532 7.43634 3.75366 5.54813 1.54688 2.83594C1.1596 3.50324 0.945312 4.4568 0.945312 5.28516C0.945312 6.57422 1.71076 8.30075 2.92188 9.10938V9.19531C2.19871 9.16614 1.45802 8.66796 0.859375 8.33594C0.859375 8.35566 0.885586 8.37938 0.885586 8.3991C0.885586 10.5883 2.49021 12.4764 4.55469 12.8906C4.19491 12.9858 3.68818 13.0625 3.30859 13.0625C3.01649 13.0625 2.72491 12.9862 2.44922 12.9336C3.02358 14.7284 4.68359 15.8984 6.66016 15.8984V15.9414C5.12166 17.1341 3.17161 17.9609 1.07422 17.9609C0.709887 17.9609 0.257812 17.918 0 17.875C1.99551 19.157 4.36777 19.9375 6.91797 19.9375C15.2184 19.9375 19.7656 13.1055 19.7656 7.13281V6.53125C20.6485 5.89355 21.3961 5.03224 22 4.125C22 4.125 20.4159 4.87562 19.3898 4.94068ZM18.0469 7.13281C18.0469 8.42239 17.7943 9.77659 17.3164 11.049C16.8142 12.3862 16.0913 13.5928 15.1679 14.6352C13.7197 16.27 11.113 18.2188 6.91797 18.2188C6.79469 18.2188 6.67163 18.2166 6.54857 18.2123C6.95359 17.9774 7.34284 17.7158 7.71323 17.4287L8.37891 16.9126V16.0703V15.8984V14.1797L7.67082 14.1718C6.89657 14.1632 6.27344 13.5332 6.27344 12.7589V11.3535L5.34398 11.1436C4.93268 11.0507 4.64062 10.6854 4.64062 10.2637V9.19531V9.06641L4.61914 8.19032L3.85477 7.67998C3.52468 7.40227 3.22554 7.00563 3.01241 6.57637C5.2678 8.22113 7.94638 9.20537 10.7301 9.36439L12.5469 9.46816V7.64844V7.60547V7.40244L12.4996 7.205C12.4454 6.97903 12.418 6.7668 12.418 6.57422C12.418 5.83413 12.7133 5.13528 13.2494 4.60638C13.7888 4.0743 14.5007 3.78125 15.2539 3.78125C16.0154 3.78125 16.6781 4.0758 17.2234 4.65674L17.6619 5.12394L17.7149 5.3289L17.7259 5.37114L18.0469 6.61207V7.13281Z" fill="black"/>
</svg>
